<svg width="28" height="28" viewBox="0 0 28 28" fill="none" xmlns="http://www.w3.org/2000/svg">
<path d="M16.0697 16.8457C16.9635 19.4943 17.5644 22.2328 17.8617 25.0123C16.6205 25.4466 15.3149 25.6678 14 25.6668C11.6867 25.6707 9.42508 24.9833 7.50518 23.6928C8.39989 22.0351 9.61918 20.5744 11.0904 19.3978C12.5616 18.2212 14.2546 17.3529 16.0685 16.8445L16.0697 16.8457ZM25.1685 17.3858C24.3358 20.1233 22.5281 22.4603 20.0877 23.9542C19.76 21.3906 19.1896 18.8639 18.3843 16.4082C20.6918 16.1698 23.0223 16.5057 25.1685 17.3858ZM14.1692 12.2327C14.5573 13.0244 14.919 13.8306 15.2542 14.6512C11.2133 15.835 7.78412 18.5305 5.67935 22.1773C4.49648 20.9652 3.5894 19.5118 3.02016 17.9166C2.45093 16.3215 2.23296 14.6222 2.38118 12.935C6.28135 13.761 10.3962 13.5207 14.1692 12.2327ZM23.0067 6.58483C24.9503 8.95863 25.8883 11.9986 25.62 15.0548C23.0535 14.0891 20.2863 13.7803 17.57 14.1565C17.1948 13.2089 16.7842 12.2757 16.3392 11.3588C18.8393 10.196 21.1004 8.57699 23.0067 6.58483ZM8.47701 3.72183C10.2211 5.69887 11.7575 7.84983 13.062 10.1408C9.75079 11.1954 6.22181 11.3683 2.82335 10.6425C3.71813 7.67851 5.75111 5.18994 8.47701 3.72183ZM14 2.3335C16.786 2.3335 19.3445 3.31 21.35 4.93983C19.6142 6.76209 17.5474 8.23734 15.26 9.28683C13.9725 6.98096 12.4643 4.80544 10.7567 2.79083C11.8109 2.48663 12.9028 2.33267 14 2.3335Z" fill="white"/>
</svg>
