<svg width="28" height="28" viewBox="0 0 28 28" fill="none" xmlns="http://www.w3.org/2000/svg">
<path d="M26.8333 11.6665V17.4998H25.6666V19.8332H24.5V22.1665H23.3333V23.3332H22.1666V24.4998H19.8333V25.6665H17.5V26.8332H10.5V25.6665H8.16663V24.4998H5.83329V23.3332H4.66663V22.1665H3.49996V19.8332H2.33329V17.4998H1.16663V10.4998H2.33329V8.1665H3.49996V5.83317H4.66663V4.6665H5.83329V3.49984H8.16663V2.33317H10.5V1.1665H17.5V2.33317H19.8333V3.49984H22.1666V5.83317H21V6.99984H19.8333V8.1665H17.5V6.99984H10.5V8.1665H8.16663V10.4998H6.99996V17.4998H8.16663V19.8332H10.5V20.9998H17.5V19.8332H19.8333V17.4998H21V16.3332H14V11.6665H26.8333Z" fill="#E5E7EB"/>
</svg>
