<svg width="28" height="28" viewBox="0 0 28 28" fill="none" xmlns="http://www.w3.org/2000/svg">
<path d="M21 4.08333V2.91667H19.8333V1.75H8.16665V2.91667H6.99998V4.08333H5.83331V7.58333H6.99998V8.75H8.16665V11.0833H6.99998V12.25H5.83331V15.75H6.99998V16.9167H8.16665V19.25H6.99998V20.4167H5.83331V23.9167H6.99998V25.0833H8.16665V26.25H14V25.0833H15.1666V18.0833H19.8333V16.9167H21V15.75H22.1666V12.25H21V11.0833H19.8333V8.75H21V7.58333H22.1666V4.08333H21ZM12.8333 25.0833H9.33331V23.9167H8.16665V20.4167H9.33331V19.25H12.8333V25.0833ZM12.8333 16.9167H9.33331V15.75H8.16665V12.25H9.33331V11.0833H12.8333V16.9167ZM12.8333 8.75H9.33331V7.58333H8.16665V4.08333H9.33331V2.91667H12.8333V8.75ZM19.8333 12.25V15.75H18.6666V16.9167H16.3333V15.75H15.1666V12.25H16.3333V11.0833H18.6666V12.25H19.8333ZM18.6666 7.58333V8.75H15.1666V2.91667H18.6666V4.08333H19.8333V7.58333H18.6666Z" fill="#E5E7EB"/>
</svg>
